<?xml version="1.0" encoding="utf-8"?>
<!-- Generator: Adobe Illustrator 28.1.0, SVG Export Plug-In . SVG Version: 6.00 Build 0)  -->
<svg version="1.1" id="EN" xmlns="http://www.w3.org/2000/svg" xmlns:xlink="http://www.w3.org/1999/xlink" x="0px" y="0px"
	 viewBox="0 0 1436.6 312" style="enable-background:new 0 0 1436.6 312;" xml:space="preserve">
<style type="text/css">
	.st0{fill:#706F6F;}
	.st1{fill:#94B0D1;}
	.st2{fill:#002C50;}
	.st3{fill:#009FE3;}
	.st4{fill:#E0005B;}
</style>
<rect x="895.9" y="8.3" class="st0" width="2.8" height="298.5"/>
<g>
	<path class="st1" d="M1261.1,76.3c-25.2-1.4-48.3,7.3-65.9,22.3c-5.5,4.7-6.4,12.9-2.2,18.8l2.9,4.1c5,7.1,14.2,7.9,20.9,2.2
		c10.8-9.3,25-14.7,40.4-14.4c31.3,0.6,57.5,26.1,59,57.4c1.6,34.6-26,63.2-60.2,63.2c-10.2,0-19.8-2.5-28.3-7
		c-6.2-3.3-13.7-1.8-17.8,3.8l-3.2,4.4c-5,7-2.7,16.7,4.9,20.8c13.2,7.2,28.3,11.2,44.4,11.2c53.6,0,96.6-45.1,93.3-99.4
		C1346.3,116.8,1307.9,78.8,1261.1,76.3z"/>
	<path class="st2" d="M1129.8,108.4l27.1-27.1c5.5-5.5,5.5-14.4,0-19.9l-4.3-4.3c-5.5-5.5-14.4-5.5-19.9,0l-72,72l0,0
		c-16.5,15.9-26.1,38.9-23.8,64.1c3.3,36.8,32.8,66.9,69.5,71c47.5,5.2,87.7-31.8,87.7-78.3C1194.2,147.2,1166.4,115.2,1129.8,108.4
		z M1107.9,230.1c-18.8-3.1-33.9-18.4-36.8-37.2c-2.4-15.8,3.3-30.2,13.6-39.9l0.3,0.3l3.2-3.2c9.2-7.1,21.2-10.7,34.1-8.8
		c19.1,2.8,34.7,18,37.7,37.1C1164.9,209,1138.6,235.2,1107.9,230.1z"/>
	<path class="st2" d="M1348.6,73.8l12.4-12.4c5.5-5.5,14.4-5.5,19.9,0l4.3,4.3c5.5,5.5,5.5,14.4,0,19.9L1372.7,98
		c-5.5,5.5-14.4,5.5-19.9,0l-4.3-4.3C1343.1,88.2,1343.1,79.3,1348.6,73.8z"/>
	<path class="st1" d="M1397.5,156.9l34,34c5.6,5.6,5.5,14.6,0,20.1l-4.1,4.1c-5.6,5.5-14.6,5.5-20.1,0l-34-34
		c-5.6-5.6-5.5-14.6,0-20.1l4.1-4.1C1383,151.3,1392,151.3,1397.5,156.9z"/>
	<path class="st3" d="M1264.7,54.8L1240,30.2c-5.5-5.5-5.5-14.4,0-19.9l4.3-4.3c5.5-5.5,14.4-5.5,19.9,0l24.6,24.6
		c5.5,5.5,5.5,14.4,0,19.9l-4.3,4.3C1279,60.3,1270.1,60.3,1264.7,54.8z"/>
	<path class="st4" d="M1314,41.4l26-26c5.6-5.6,14.6-5.5,20.1,0l4,4c5.6,5.6,5.6,14.6,0,20.1l-26,26c-5.6,5.6-14.6,5.5-20.1,0l-4-4
		C1308.5,56,1308.5,47,1314,41.4z"/>
</g>
<g>
	<polygon class="st3" points="124.7,93.3 64.2,32.8 97.1,0 157.5,60.5 	"/>
	<polygon class="st4" points="164.6,75.2 227.3,12.6 260.1,45.4 197.4,108.1 	"/>
	<rect x="216" y="91.4" transform="matrix(0.7078 -0.7064 0.7064 0.7078 -8.8465 207.956)" class="st2" width="62" height="46.4"/>
	
		<rect x="200.3" y="115.8" transform="matrix(0.7072 -0.7071 0.7071 0.7072 -71.5296 214.7421)" class="st1" width="46.4" height="155.9"/>
	<polygon class="st3" points="149.7,247.4 215.4,312 248.3,279.2 182.5,214.6 	"/>
	<polygon class="st4" points="170.4,200.3 78.4,292.8 45.5,260 137.5,167.4 	"/>
	<polygon class="st1" points="51.3,44.7 18.5,77.5 65.1,124.6 97.9,91.7 	"/>
	
		<rect x="-6.6" y="153.5" transform="matrix(0.7071 -0.7071 0.7071 0.7071 -103.8408 102.6998)" class="st2" width="157.4" height="46.4"/>
	<g>
		<path class="st0" d="M335.8,47.5c2.8,0,4.6,0.2,5.5,0.7c0.8,0.5,1.4,1.4,1.6,2.6c0.2,1.3,0.4,4.1,0.4,8.5v27.1
			c0,4.6-0.1,7.6-0.4,8.8c-0.3,1.3-0.8,2.2-1.7,2.8c-0.9,0.6-2.5,0.9-4.9,0.9h-1.6v1.9h25.3V99h-1.6c-2.5,0-4.2-0.3-5.1-1
			c-0.9-0.7-1.4-1.7-1.6-3c-0.2-1.3-0.3-4.2-0.3-8.5V59.4c0-4.6,0.2-7.5,0.4-8.7c0.3-1.2,0.9-2.1,1.7-2.5c0.8-0.4,2.6-0.7,5.3-0.7
			h1.2v-1.9h-25.3v1.9H335.8z M362.7,68v1.9c2,0,3.3,0.2,4,0.6c0.7,0.4,1.2,1.1,1.3,1.9c0.1,0.8,0.2,3.2,0.2,7.1v10
			c0,4.1-0.1,6.5-0.3,7.3c-0.2,0.8-0.6,1.4-1.4,1.7c-0.7,0.4-2.1,0.6-3.9,0.6v1.9h16.9V99c-2,0-3.3-0.2-4-0.6
			c-0.7-0.4-1.1-1.1-1.3-1.9c-0.2-0.8-0.2-3.2-0.2-7V75.8c1.6-2.4,3.3-4.1,5.1-5.3c1.8-1.2,3.7-1.8,5.7-1.8c1.7,0,3.2,0.4,4.3,1.3
			c1.1,0.9,1.8,1.9,2.1,3c0.3,1.1,0.4,3,0.4,5.6v10.8c0,3.7,0,6-0.1,6.7c-0.1,0.8-0.4,1.4-1,2c-0.6,0.6-1.9,0.9-3.8,0.9h-0.8v1.9h17
			V99c-1.9,0-3.3-0.2-4-0.6c-0.7-0.4-1.1-1.1-1.3-1.9c-0.1-0.8-0.2-3.2-0.2-7V79c0-3.1-0.2-5.5-0.7-7.1c-0.5-1.6-1.6-3-3.3-4.1
			c-1.7-1.1-3.9-1.7-6.5-1.7c-2.3,0-4.6,0.6-6.7,1.7C378,69,376,70.7,374,73c-0.1-2.9-0.4-5.2-1-6.9h-1.1
			C368.7,67,365.7,67.6,362.7,68 M425.9,67.4h-10.1V57h-1.3c-0.5,3.3-1.6,5.8-3.4,7.6c-1.8,1.8-3.8,2.8-6,2.8v1.9h4.8v18.9
			c0,3.9,0.2,6.6,0.6,8.2c0.4,1.6,1.3,2.9,2.8,4.1c1.5,1.2,3.2,1.7,5.2,1.7c1.7,0,3.3-0.5,5-1.4c1.6-0.9,2.9-2.3,3.7-4l-1.3-0.8
			c-1.4,2.2-3.1,3.3-5.1,3.3c-1,0-1.9-0.3-2.8-1c-0.9-0.7-1.4-1.5-1.7-2.6c-0.3-1.1-0.4-3.1-0.4-6.2V69.3h10.1V67.4z M455.2,70.1
			c-2.4-2.7-5.8-4-10.1-4c-4.7,0-8.5,1.7-11.6,5.2c-3.1,3.5-4.7,7.9-4.7,13.1c0,3.7,0.8,6.9,2.4,9.5c1.6,2.6,3.7,4.6,6.2,6
			c2.5,1.4,5.2,2.2,8,2.2c3,0,5.9-0.8,8.5-2.3c2.6-1.6,4.3-3.7,5.2-6.5h-2c-2.1,4.4-5.6,6.7-10.5,6.7c-3.7,0-6.4-1.5-8.2-4.4
			c-1.8-2.9-2.8-7.3-2.8-13.2c0-0.8,0-2,0.1-3.6H459C458.9,75.7,457.6,72.8,455.2,70.1 M435.9,77.1c0.9-6.1,3.9-9.2,8.9-9.2
			c2,0,3.8,0.7,5.2,2c1.4,1.3,2.1,3.2,2.1,5.6c0,0.5,0,1.1-0.1,1.7H435.9z M473.1,66.1c-4.1,1.3-7.5,2.1-10,2.4v1.8h0.9
			c1.7,0,2.9,0.2,3.6,0.8c0.7,0.5,1.1,1.2,1.2,2.1c0.1,0.9,0.1,3.2,0.1,6.7v9.4c0,3.9-0.1,6.2-0.2,7c-0.1,0.8-0.5,1.4-1.2,1.9
			c-0.7,0.4-1.9,0.7-3.5,0.7h-0.9v1.9h17.7V99h-1.2c-1.8,0-3-0.3-3.7-0.7c-0.7-0.5-1.1-1.2-1.2-2.1c-0.1-0.9-0.1-3.2-0.1-6.7v-6
			c0-3,0.2-5.3,0.7-7.1c0.5-1.7,1.5-3.4,3.2-5c1.6-1.6,3-2.4,4.2-2.4c1,0,1.7,0.7,2.2,2c0.7,2,1.7,3,3.1,3c0.8,0,1.4-0.3,1.9-0.9
			c0.5-0.6,0.8-1.2,0.8-2c0-1.2-0.5-2.3-1.6-3.4c-1-1.1-2.4-1.7-4.2-1.7c-2,0-4,0.8-6.1,2.4c-2.1,1.6-3.6,3.7-4.5,6.1
			C474.3,71.1,473.9,68.3,473.1,66.1 M493.9,68v1.9c1.9,0,3.3,0.2,4,0.6c0.7,0.4,1.2,1.1,1.3,1.9c0.2,0.8,0.2,3.2,0.2,7.1v10
			c0,4.1-0.1,6.5-0.3,7.3c-0.2,0.8-0.6,1.4-1.4,1.7c-0.7,0.4-2,0.6-3.9,0.6v1.9h16.9V99c-2,0-3.3-0.2-4-0.6
			c-0.7-0.4-1.2-1.1-1.3-1.9c-0.2-0.8-0.2-3.2-0.2-7V75.8c1.6-2.4,3.3-4.1,5.1-5.3c1.8-1.2,3.7-1.8,5.7-1.8c1.7,0,3.2,0.4,4.3,1.3
			c1.1,0.9,1.8,1.9,2.1,3c0.3,1.1,0.4,3,0.4,5.6v10.8c0,3.7,0,6-0.1,6.7c-0.1,0.8-0.4,1.4-1,2c-0.6,0.6-1.9,0.9-3.8,0.9h-0.8v1.9h17
			V99c-1.9,0-3.3-0.2-4-0.6c-0.7-0.4-1.1-1.1-1.3-1.9c-0.1-0.8-0.2-3.2-0.2-7V79c0-3.1-0.2-5.5-0.7-7.1c-0.5-1.6-1.6-3-3.3-4.1
			c-1.7-1.1-3.9-1.7-6.5-1.7c-2.3,0-4.6,0.6-6.7,1.7c-2.1,1.1-4.2,2.9-6.1,5.2c-0.1-2.9-0.4-5.2-1.1-6.9h-1.1
			C500,67,496.9,67.6,493.9,68 M567.7,98.7c-1.1,0-1.8-0.4-2.1-1.3c-0.3-0.9-0.5-2.9-0.5-6.1V77.8c0-2.8-0.3-5-0.9-6.4
			c-0.6-1.4-1.9-2.6-3.8-3.7c-1.9-1.1-4.6-1.6-8-1.6c-4.7,0-8.1,0.9-10.3,2.7c-2.2,1.8-3.3,3.4-3.3,5c0,1.6,0.8,2.4,2.5,2.4
			c1.8,0,3-1.4,3.4-4.2c0.5-2.7,2.7-4.1,6.8-4.1c2,0,3.7,0.4,4.9,1.2c1.3,0.8,2,1.7,2.3,2.8c0.3,1,0.4,2.7,0.4,5v1.6l-6.3,2.6
			c-4.8,2-8.6,4-11.3,6.1c-2.7,2.1-4.1,4.5-4.1,7.4c0,2.1,0.8,3.9,2.4,5.2c1.6,1.3,3.6,1.9,5.8,1.9c1.8,0,3.8-0.5,6-1.5
			c2.3-1,4.7-2.4,7.5-4.4c0.3,1.9,1,3.4,2.1,4.4c1.1,1,2.5,1.5,4.4,1.5c4.3,0,6.6-2.3,6.8-7H571C570.6,97.4,569.5,98.7,567.7,98.7
			 M559.2,93.7c-2.1,1.7-4,3-5.7,3.8c-1.7,0.8-3.2,1.3-4.5,1.3c-1.4,0-2.6-0.5-3.5-1.6c-0.9-1-1.3-2.4-1.3-4.1
			c0-4.3,3.5-7.9,10.5-10.8l4.5-1.8V93.7z M593.8,67.4h-10.1V57h-1.3c-0.5,3.3-1.6,5.8-3.4,7.6c-1.8,1.8-3.8,2.8-6,2.8v1.9h4.8v18.9
			c0,3.9,0.2,6.6,0.5,8.2c0.4,1.6,1.3,2.9,2.8,4.1c1.5,1.2,3.2,1.7,5.2,1.7c1.7,0,3.3-0.5,5-1.4c1.6-0.9,2.9-2.3,3.7-4l-1.3-0.8
			c-1.4,2.2-3.1,3.3-5.1,3.3c-1,0-2-0.3-2.8-1c-0.9-0.7-1.5-1.5-1.7-2.6c-0.3-1.1-0.4-3.1-0.4-6.2V69.3h10.1V67.4z M600.4,52.1
			c0.8,0.9,1.8,1.3,3,1.3c1.2,0,2.2-0.4,3-1.3c0.8-0.8,1.2-1.9,1.2-3.1c0-1.2-0.4-2.2-1.2-3c-0.8-0.8-1.8-1.3-3-1.3
			c-1.2,0-2.2,0.4-3,1.3c-0.8,0.8-1.2,1.8-1.2,3C599.1,50.3,599.6,51.3,600.4,52.1 M606.1,66.1c-2.6,0.9-6.4,1.7-11.2,2.2v1.9h1.1
			c1.5,0,2.6,0.1,3.2,0.3c0.6,0.2,1.1,0.8,1.5,1.6c0.4,0.9,0.5,3.3,0.5,7.2v10.1c0,3.7,0,6-0.1,6.7c-0.1,0.8-0.4,1.4-1,2
			c-0.6,0.6-1.8,0.8-3.8,0.8h-1.4v1.9h18V99H612c-1.7,0-2.9-0.3-3.6-0.7c-0.7-0.5-1.1-1.2-1.2-2.1c-0.1-0.9-0.2-3.2-0.2-6.7V66.1
			H606.1z M621,97.3c3.5,3.3,7.7,4.9,12.6,4.9c4.9,0,9.1-1.6,12.6-4.8c3.5-3.2,5.2-7.6,5.2-13.3c0-5.1-1.7-9.3-5.1-12.8
			c-3.4-3.5-7.6-5.2-12.7-5.2c-5,0-9.2,1.7-12.6,5.2c-3.4,3.4-5.1,7.7-5.1,12.8C615.9,89.6,617.6,94,621,97.3 M625.4,71.7
			c1.9-2.5,4.6-3.7,8.2-3.7c3.6,0,6.3,1.2,8.2,3.7c1.9,2.5,2.8,6.7,2.8,12.6c0,5.9-0.9,10.1-2.8,12.4c-1.9,2.4-4.6,3.6-8.2,3.6
			c-3.5,0-6.2-1.2-8.1-3.6c-1.9-2.4-2.9-6.5-2.9-12.4C622.6,78.4,623.6,74.2,625.4,71.7 M655.2,68v1.9c2,0,3.3,0.2,4,0.6
			c0.7,0.4,1.2,1.1,1.3,1.9c0.1,0.8,0.2,3.2,0.2,7.1v10c0,4.1-0.1,6.5-0.3,7.3c-0.2,0.8-0.6,1.4-1.4,1.7c-0.7,0.4-2,0.6-3.9,0.6v1.9
			h16.9V99c-2,0-3.3-0.2-4-0.6c-0.7-0.4-1.2-1.1-1.3-1.9c-0.2-0.8-0.2-3.2-0.2-7V75.8c1.6-2.4,3.3-4.1,5.1-5.3
			c1.8-1.2,3.7-1.8,5.7-1.8c1.7,0,3.2,0.4,4.3,1.3c1.1,0.9,1.8,1.9,2.1,3c0.3,1.1,0.4,3,0.4,5.6v10.8c0,3.7,0,6-0.1,6.7
			c-0.1,0.8-0.4,1.4-1,2c-0.6,0.6-1.9,0.9-3.8,0.9h-0.8v1.9h17V99c-1.9,0-3.2-0.2-4-0.6c-0.7-0.4-1.2-1.1-1.3-1.9
			c-0.1-0.8-0.2-3.2-0.2-7V79c0-3.1-0.2-5.5-0.7-7.1c-0.5-1.6-1.6-3-3.3-4.1c-1.7-1.1-3.9-1.7-6.5-1.7c-2.3,0-4.6,0.6-6.7,1.7
			c-2.1,1.1-4.2,2.9-6.1,5.2c-0.1-2.9-0.4-5.2-1.1-6.9h-1.1C661.2,67,658.2,67.6,655.2,68 M728.9,98.7c-1.1,0-1.8-0.4-2.1-1.3
			c-0.3-0.9-0.5-2.9-0.5-6.1V77.8c0-2.8-0.3-5-0.9-6.4c-0.6-1.4-1.9-2.6-3.8-3.7c-1.9-1.1-4.6-1.6-8-1.6c-4.6,0-8.1,0.9-10.3,2.7
			c-2.2,1.8-3.3,3.4-3.3,5c0,1.6,0.8,2.4,2.5,2.4c1.9,0,3-1.4,3.4-4.2c0.5-2.7,2.7-4.1,6.8-4.1c2,0,3.7,0.4,4.9,1.2
			c1.3,0.8,2,1.7,2.3,2.8c0.3,1,0.5,2.7,0.5,5v1.6l-6.3,2.6c-4.8,2-8.6,4-11.3,6.1c-2.7,2.1-4.1,4.5-4.1,7.4c0,2.1,0.8,3.9,2.4,5.2
			c1.6,1.3,3.6,1.9,5.8,1.9c1.8,0,3.8-0.5,6-1.5c2.3-1,4.7-2.4,7.5-4.4c0.3,1.9,1,3.4,2.1,4.4c1.1,1,2.5,1.5,4.4,1.5
			c4.3,0,6.6-2.3,6.8-7h-1.5C731.9,97.4,730.7,98.7,728.9,98.7 M720.5,93.7c-2.1,1.7-4,3-5.7,3.8c-1.7,0.8-3.2,1.3-4.5,1.3
			c-1.4,0-2.6-0.5-3.5-1.6c-0.9-1-1.3-2.4-1.3-4.1c0-4.3,3.5-7.9,10.6-10.8l4.5-1.8V93.7z M744.8,44.8c-0.8,0.4-2.4,0.8-4.6,1.1
			c-2.2,0.4-4.2,0.6-5.8,0.6v1.9c2.4,0,3.9,0.5,4.6,1.4c0.6,0.9,0.9,3.1,0.9,6.6v33c0,3.9-0.1,6.2-0.2,7c-0.1,0.8-0.5,1.4-1.2,1.9
			c-0.7,0.4-1.9,0.7-3.5,0.7h-1.1v1.9h17.8V99h-1c-1.7,0-2.9-0.3-3.6-0.7c-0.7-0.5-1.1-1.2-1.2-2.1c-0.1-0.9-0.1-3.2-0.1-6.7V44.8
			H744.8z"/>
		<path class="st0" d="M338.9,135.2c1.1-1.7,2.2-2.7,3.5-3.1c1.2-0.3,3.6-0.5,7.2-0.5h8.2v39c0,4.6-0.1,7.6-0.4,8.8
			c-0.2,1.3-0.8,2.2-1.8,2.8c-0.9,0.6-2.5,0.9-4.9,0.9h-2.8v1.9h27.6v-1.9h-2.7c-2.5,0-4.1-0.3-5-1c-0.9-0.6-1.4-1.6-1.6-3
			c-0.2-1.4-0.3-4.2-0.3-8.5v-39h8.9c3,0,5.2,0.2,6.4,0.6c1.2,0.4,2.4,1.3,3.5,3c1.1,1.6,1.9,4.2,2.6,7.9h1.8l-0.3-13.3h-53.7
			l-0.3,13.3h1.9C337,139.6,337.9,137,338.9,135.2 M395.4,150.3c-4.1,1.3-7.4,2.1-10,2.4v1.8h0.9c1.7,0,2.9,0.3,3.6,0.8
			c0.7,0.5,1.1,1.2,1.2,2.1c0.1,0.9,0.1,3.2,0.1,6.7v9.4c0,3.9-0.1,6.2-0.2,7c-0.1,0.8-0.6,1.4-1.3,1.9c-0.7,0.4-1.9,0.7-3.5,0.7
			h-0.9v1.9h17.7v-1.9H402c-1.7,0-3-0.3-3.6-0.7c-0.7-0.5-1.1-1.2-1.2-2.1c-0.1-0.9-0.1-3.2-0.1-6.7v-6c0-3,0.2-5.3,0.7-7.1
			c0.5-1.7,1.5-3.4,3.1-4.9c1.6-1.6,3-2.4,4.2-2.4c1,0,1.7,0.7,2.2,2c0.7,2,1.7,3,3.1,3c0.8,0,1.4-0.3,1.9-0.9
			c0.5-0.6,0.8-1.3,0.8-2c0-1.2-0.5-2.3-1.5-3.4c-1-1.1-2.4-1.7-4.3-1.7c-2,0-4,0.8-6.1,2.4c-2.1,1.6-3.6,3.7-4.5,6.1
			C396.7,155.3,396.2,152.5,395.4,150.3 M445.1,182.9c-1.1,0-1.8-0.4-2.1-1.3c-0.3-0.9-0.5-2.9-0.5-6.1V162c0-2.9-0.3-5-0.9-6.4
			c-0.6-1.4-1.9-2.6-3.8-3.7c-1.9-1.1-4.6-1.6-8-1.6c-4.6,0-8.1,0.9-10.3,2.7c-2.2,1.8-3.3,3.5-3.3,5c0,1.6,0.8,2.4,2.5,2.4
			c1.8,0,3-1.4,3.4-4.2c0.5-2.7,2.7-4.1,6.8-4.1c2.1,0,3.7,0.4,4.9,1.2c1.3,0.8,2,1.7,2.3,2.8c0.3,1,0.5,2.7,0.5,5v1.6l-6.3,2.6
			c-4.8,2-8.6,4-11.3,6.1c-2.7,2.1-4.1,4.5-4.1,7.3c0,2.2,0.8,3.9,2.5,5.2c1.6,1.3,3.6,2,5.8,2c1.8,0,3.8-0.5,6-1.5
			c2.3-1,4.7-2.4,7.5-4.3c0.3,1.9,1,3.4,2.1,4.3c1.1,1,2.5,1.5,4.4,1.5c4.3,0,6.6-2.3,6.8-7h-1.5C448,181.6,446.9,182.9,445.1,182.9
			 M436.6,177.9c-2.1,1.7-4,3-5.7,3.8c-1.7,0.8-3.2,1.3-4.5,1.3c-1.5,0-2.6-0.5-3.5-1.6c-0.9-1-1.3-2.4-1.3-4.1
			c0-4.3,3.5-7.9,10.5-10.8l4.5-1.8V177.9z M474.8,151.6c-2-0.8-4.1-1.2-6.4-1.2c-4.4,0-8.3,1.7-11.5,5c-3.2,3.4-4.8,7.8-4.8,13.2
			c0,4.9,1.6,9.2,4.7,12.6c3.1,3.5,6.9,5.2,11.2,5.2c2.3,0,4.5-0.5,6.6-1.5c2.1-1,4.2-2.5,6.2-4.5c0,2.7,0.2,4.8,0.5,6
			c3.1-0.6,6.6-1,10.5-1.1v-1.9c-2,0-3.3-0.2-4-0.6c-0.7-0.4-1.2-1-1.3-1.9c-0.1-0.8-0.2-3.2-0.2-7.1V129h-0.8
			c-3.9,1-7.5,1.6-10.8,1.7v1.9h0.9c1.7,0,2.9,0.2,3.6,0.7c0.7,0.5,1.1,1.2,1.2,2.1c0.1,0.9,0.1,3.2,0.1,6.7v13
			C478.7,153.6,476.8,152.4,474.8,151.6 M480.5,178.1c-1.5,2-3.1,3.4-4.9,4.4c-1.8,1-3.7,1.5-5.8,1.5c-3.1,0-5.7-1.3-7.8-3.9
			c-2.1-2.6-3.2-6.6-3.2-12c0-5.4,1-9.2,3.1-11.6c2.1-2.4,4.6-3.5,7.7-3.5c1.8,0,3.6,0.4,5.4,1.2c1.8,0.8,3.6,1.9,5.4,3.5V178.1z
			 M520.5,154.3c-2.4-2.7-5.8-4-10.2-4c-4.7,0-8.5,1.7-11.6,5.2c-3.1,3.5-4.7,7.9-4.7,13.2c0,3.7,0.8,6.9,2.4,9.5
			c1.6,2.6,3.7,4.6,6.2,6.1c2.5,1.4,5.2,2.1,8,2.1c3.1,0,5.9-0.8,8.4-2.3c2.6-1.6,4.3-3.7,5.2-6.5h-2c-2.1,4.4-5.6,6.6-10.5,6.6
			c-3.7,0-6.4-1.5-8.2-4.4c-1.8-2.9-2.8-7.3-2.8-13.2c0-0.8,0-2,0.2-3.6h23.3C524.2,159.9,522.9,157,520.5,154.3 M501.1,161.3
			c1-6.1,3.9-9.2,8.9-9.2c2,0,3.8,0.7,5.2,2c1.4,1.3,2.1,3.2,2.1,5.6c0,0.5,0,1-0.1,1.7H501.1z"/>
		<path class="st0" d="M379.9,253.9c-1.8,3.4-4.3,5.9-7.3,7.3c-3.1,1.4-6.1,2.2-9.1,2.2c-5.6,0-10.2-2.2-13.9-6.6
			c-3.7-4.4-5.6-10.8-5.6-19.1c0-8.7,1.7-15.5,5.1-20.2c3.4-4.7,8-7.1,13.8-7.1c4.7,0,9,1.5,12.7,4.4c3.8,2.9,6.3,8.1,7.5,15.5h1.7
			l-0.5-21h-1.8c-0.2,2.5-0.9,4.9-2.1,7.2c-1.7-2.1-4.2-3.9-7.5-5.6c-3.3-1.7-7.1-2.6-11.2-2.6c-5,0-9.6,1.2-13.8,3.5
			c-4.2,2.3-7.4,5.9-9.8,10.7c-2.4,4.8-3.5,10-3.5,15.4c0,8.3,2.5,15,7.6,20c5.1,5.1,11.6,7.6,19.6,7.6c7.6,0,13.8-2.7,18.6-8.2
			c1.3,1.7,2.1,3.6,2.6,5.8h1.7v-19.4h-1.7C382.7,247.1,381.7,250.4,379.9,253.9 M418.2,233.9c-2.4-2.7-5.8-4-10.2-4
			c-4.7,0-8.5,1.8-11.6,5.2c-3.1,3.5-4.7,7.9-4.7,13.1c0,3.7,0.8,6.9,2.4,9.5c1.6,2.6,3.7,4.6,6.2,6.1c2.5,1.4,5.2,2.1,8,2.1
			c3.1,0,5.9-0.8,8.5-2.3c2.6-1.6,4.3-3.7,5.2-6.5h-2c-2.1,4.4-5.6,6.6-10.5,6.6c-3.7,0-6.4-1.5-8.2-4.4c-1.8-3-2.8-7.4-2.8-13.2
			c0-0.8,0.1-2,0.2-3.6H422C421.9,239.5,420.6,236.6,418.2,233.9 M398.8,240.9c0.9-6.1,3.9-9.2,8.9-9.2c2.1,0,3.8,0.7,5.2,2
			c1.4,1.3,2.1,3.2,2.1,5.6c0,0.5,0,1-0.1,1.7H398.8z M425.8,231.7v1.9c2,0,3.3,0.2,4,0.6c0.7,0.4,1.2,1.1,1.3,1.9
			c0.2,0.8,0.2,3.2,0.2,7.1v10c0,4.1-0.1,6.5-0.3,7.3c-0.2,0.8-0.6,1.4-1.4,1.7c-0.7,0.4-2,0.6-3.9,0.6v1.9h16.9v-1.9
			c-2,0-3.3-0.2-4-0.6c-0.7-0.4-1.2-1.1-1.3-1.9c-0.1-0.8-0.2-3.2-0.2-7.1v-13.6c1.6-2.4,3.3-4.1,5.1-5.3c1.8-1.2,3.7-1.8,5.7-1.8
			c1.7,0,3.2,0.4,4.3,1.3c1.1,0.9,1.8,1.9,2.1,3c0.3,1.1,0.4,3,0.4,5.6v10.8c0,3.7,0,6-0.1,6.7c-0.1,0.8-0.4,1.4-1,2
			c-0.6,0.6-1.9,0.9-3.8,0.9H449v1.9h17v-1.9c-1.9,0-3.2-0.2-4-0.6c-0.7-0.4-1.2-1.1-1.3-1.9c-0.1-0.8-0.2-3.2-0.2-7.1v-10.4
			c0-3.1-0.2-5.5-0.7-7.1c-0.5-1.6-1.6-3-3.3-4.1c-1.7-1.1-3.9-1.7-6.5-1.7c-2.3,0-4.6,0.6-6.7,1.7c-2.1,1.1-4.2,2.9-6.2,5.2
			c-0.1-2.9-0.4-5.2-1.1-6.9H435C431.9,230.8,428.8,231.4,425.8,231.7 M489.1,231.2H479v-10.5h-1.3c-0.5,3.3-1.6,5.8-3.4,7.7
			c-1.8,1.8-3.8,2.7-6,2.8v1.8h4.8V252c0,3.9,0.2,6.6,0.6,8.1c0.4,1.6,1.3,2.9,2.8,4.1c1.5,1.2,3.2,1.7,5.1,1.7c1.7,0,3.4-0.5,5-1.4
			c1.6-0.9,2.9-2.3,3.7-4.1l-1.3-0.8c-1.5,2.2-3.1,3.3-5.1,3.3c-1,0-2-0.3-2.8-1c-0.9-0.6-1.5-1.5-1.7-2.6c-0.3-1.1-0.4-3.2-0.4-6.3
			v-20.2h10.1V231.2z M501.4,229.9c-4.1,1.3-7.4,2.1-10,2.4v1.8h0.9c1.7,0,2.9,0.2,3.6,0.8c0.7,0.5,1.1,1.2,1.2,2.1
			c0.1,0.9,0.1,3.2,0.1,6.7v9.4c0,3.9-0.1,6.2-0.2,7c-0.1,0.8-0.5,1.4-1.2,1.9c-0.7,0.5-1.9,0.7-3.5,0.7h-0.9v1.9h17.7v-1.9H508
			c-1.8,0-3-0.3-3.7-0.7c-0.7-0.5-1.1-1.2-1.2-2.1c-0.1-0.9-0.1-3.2-0.1-6.7v-6c0-3,0.2-5.3,0.7-7c0.5-1.7,1.5-3.4,3.1-4.9
			c1.6-1.6,3-2.4,4.2-2.4c1,0,1.7,0.7,2.2,2c0.7,2,1.7,3,3.1,3c0.7,0,1.4-0.3,1.9-0.9c0.5-0.6,0.8-1.3,0.8-2c0-1.2-0.5-2.3-1.6-3.4
			c-1-1.1-2.4-1.7-4.2-1.7c-2,0-4,0.8-6.1,2.5c-2.1,1.6-3.6,3.7-4.5,6.1C502.6,234.9,502.2,232,501.4,229.9 M546.4,233.9
			c-2.4-2.7-5.8-4-10.2-4c-4.7,0-8.5,1.8-11.6,5.2c-3.1,3.5-4.7,7.9-4.7,13.1c0,3.7,0.8,6.9,2.4,9.5c1.6,2.6,3.7,4.6,6.2,6.1
			c2.5,1.4,5.2,2.1,8,2.1c3,0,5.9-0.8,8.4-2.3c2.6-1.6,4.3-3.7,5.2-6.5h-2c-2.1,4.4-5.6,6.6-10.6,6.6c-3.6,0-6.4-1.5-8.2-4.4
			c-1.8-3-2.8-7.4-2.8-13.2c0-0.8,0.1-2,0.2-3.6h23.3C550,239.5,548.8,236.6,546.4,233.9 M527,240.9c0.9-6.1,3.9-9.2,8.9-9.2
			c2.1,0,3.8,0.7,5.2,2c1.4,1.3,2.1,3.2,2.1,5.6c0,0.5-0.1,1-0.1,1.7H527z"/>
	</g>
</g>
</svg>
